HIERARCHY
ROOT Hips
{
    OFFSET   0.000000   0.000000   0.000000
    CHANNELS 6 Xposition Yposition Zposition Zrotation Xrotation Yrotation
    JOINT Chest
    {
        OFFSET   0.000000   8.007230   0.000000
        CHANNELS 3 Zrotation Xrotation Yrotation
        JOINT Chest2
        {
            OFFSET   0.000000  22.077100   0.000000
            CHANNELS 3 Zrotation Xrotation Yrotation
            JOINT Neck
            {
                OFFSET   0.000000  23.255100   0.000000
                CHANNELS 3 Zrotation Xrotation Yrotation
                JOINT Head
                {
                    OFFSET   0.000000  14.370100   1.956600
                    CHANNELS 3 Zrotation Xrotation Yrotation
                    End Site
                    {
                        OFFSET   0.000000  19.566000   0.000000
                    }
                }
            }
            JOINT LeftCollar
            {
                OFFSET   3.911900  19.017000  -0.467063
                CHANNELS 3 Zrotation Xrotation Yrotation
                JOINT LeftShoulder
                {
                    OFFSET  10.383700   0.000000   0.000000
                    CHANNELS 3 Zrotation Xrotation Yrotation
                    JOINT LeftElbow
                    {
                        OFFSET  26.662100   0.001193   0.000980
                        CHANNELS 3 Zrotation Xrotation Yrotation
                        JOINT LeftWrist
                        {
                            OFFSET  28.869000  -0.000059  -0.000082
                            CHANNELS 3 Zrotation Xrotation Yrotation
                            JOINT LeftFinger0
                            {
                                OFFSET   2.044650  -2.323450   3.252850
                                CHANNELS 3 Zrotation Xrotation Yrotation
                                JOINT LeftFinger01
                                {
                                    OFFSET   3.088130   0.000000   0.000000
                                    CHANNELS 3 Zrotation Xrotation Yrotation
                                    JOINT LeftFinger02
                                    {
                                        OFFSET   2.639460   0.000000   0.000000
                                        CHANNELS 3 Zrotation Xrotation Yrotation
                                        End Site
                                        {
                                            OFFSET   2.582190   0.000000   0.000000
                                        }
                                    }
                                }
                            }
                            JOINT LeftFinger1
                            {
                                OFFSET   8.364480   0.000000   3.252850
                                CHANNELS 3 Zrotation Xrotation Yrotation
                                JOINT LeftFinger11
                                {
                                    OFFSET   4.646930   0.000000   0.000000
                                    CHANNELS 3 Zrotation Xrotation Yrotation
                                    JOINT LeftFinger12
                                    {
                                        OFFSET   2.323470   0.000000   0.000000
                                        CHANNELS 3 Zrotation Xrotation Yrotation
                                        End Site
                                        {
                                            OFFSET   2.273050   0.000000   0.000000
                                        }
                                    }
                                }
                            }
                            JOINT LeftFinger2
                            {
                                OFFSET   8.364490   0.000016   1.078090
                                CHANNELS 3 Zrotation Xrotation Yrotation
                                JOINT LeftFinger21
                                {
                                    OFFSET   5.111610   0.000000   0.000000
                                    CHANNELS 3 Zrotation Xrotation Yrotation
                                    JOINT LeftFinger22
                                    {
                                        OFFSET   2.788150   0.000016   0.000000
                                        CHANNELS 3 Zrotation Xrotation Yrotation
                                        End Site
                                        {
                                            OFFSET   2.727660   0.000000   0.000000
                                        }
                                    }
                                }
                            }
                            JOINT LeftFinger3
                            {
                                OFFSET   7.899780   0.000015  -1.078090
                                CHANNELS 3 Zrotation Xrotation Yrotation
                                JOINT LeftFinger31
                                {
                                    OFFSET   4.646930   0.000000   0.000000
                                    CHANNELS 3 Zrotation Xrotation Yrotation
                                    JOINT LeftFinger32
                                    {
                                        OFFSET   2.323470   0.000000   0.000000
                                        CHANNELS 3 Zrotation Xrotation Yrotation
                                        End Site
                                        {
                                            OFFSET   2.273050   0.000000   0.000000
                                        }
                                    }
                                }
                            }
                            JOINT LeftFinger4
                            {
                                OFFSET   7.435090   0.000000  -3.252850
                                CHANNELS 3 Zrotation Xrotation Yrotation
                                JOINT LeftFinger41
                                {
                                    OFFSET   3.717550   0.000000   0.000000
                                    CHANNELS 3 Zrotation Xrotation Yrotation
                                    JOINT LeftFinger42
                                    {
                                        OFFSET   1.858770   0.000000   0.000000
                                        CHANNELS 3 Zrotation Xrotation Yrotation
                                        End Site
                                        {
                                            OFFSET   1.818440   0.000000   0.000000
                                        }
                                    }
                                }
                            }
                        }
                    }
                }
            }
            JOINT RightCollar
            {
                OFFSET  -3.911910  19.017000  -0.467062
                CHANNELS 3 Zrotation Xrotation Yrotation
                JOINT RightShoulder
                {
                    OFFSET -10.383700   0.000014   0.000000
                    CHANNELS 3 Zrotation Xrotation Yrotation
                    JOINT RightElbow
                    {
                        OFFSET -26.662100   0.001225   0.001091
                        CHANNELS 3 Zrotation Xrotation Yrotation
                        JOINT RightWrist
                        {
                            OFFSET -28.869000  -0.000020  -0.000085
                            CHANNELS 3 Zrotation Xrotation Yrotation
                            JOINT RightFinger0
                            {
                                OFFSET  -2.044650  -2.323490   3.252850
                                CHANNELS 3 Zrotation Xrotation Yrotation
                                JOINT RightFinger01
                                {
                                    OFFSET  -3.088130   0.000000   0.000000
                                    CHANNELS 3 Zrotation Xrotation Yrotation
                                    JOINT RightFinger02
                                    {
                                        OFFSET  -2.639460   0.000000   0.000000
                                        CHANNELS 3 Zrotation Xrotation Yrotation
                                        End Site
                                        {
                                            OFFSET  -2.582190   0.000000   0.000000
                                        }
                                    }
                                }
                            }
                            JOINT RightFinger1
                            {
                                OFFSET  -8.364480   0.000000   3.252850
                                CHANNELS 3 Zrotation Xrotation Yrotation
                                JOINT RightFinger11
                                {
                                    OFFSET  -4.646930   0.000000   0.000000
                                    CHANNELS 3 Zrotation Xrotation Yrotation
                                    JOINT RightFinger12
                                    {
                                        OFFSET  -2.323470   0.000000   0.000000
                                        CHANNELS 3 Zrotation Xrotation Yrotation
                                        End Site
                                        {
                                            OFFSET  -2.273050   0.000000   0.000000
                                        }
                                    }
                                }
                            }
                            JOINT RightFinger2
                            {
                                OFFSET  -8.364480   0.000000   1.078090
                                CHANNELS 3 Zrotation Xrotation Yrotation
                                JOINT RightFinger21
                                {
                                    OFFSET  -5.111620   0.000000   0.000000
                                    CHANNELS 3 Zrotation Xrotation Yrotation
                                    JOINT RightFinger22
                                    {
                                        OFFSET  -2.788160   0.000000   0.000000
                                        CHANNELS 3 Zrotation Xrotation Yrotation
                                        End Site
                                        {
                                            OFFSET  -2.727660   0.000000   0.000000
                                        }
                                    }
                                }
                            }
                            JOINT RightFinger3
                            {
                                OFFSET  -7.899780   0.000000  -1.078090
                                CHANNELS 3 Zrotation Xrotation Yrotation
                                JOINT RightFinger31
                                {
                                    OFFSET  -4.646930   0.000000   0.000000
                                    CHANNELS 3 Zrotation Xrotation Yrotation
                                    JOINT RightFinger32
                                    {
                                        OFFSET  -2.323470   0.000000   0.000000
                                        CHANNELS 3 Zrotation Xrotation Yrotation
                                        End Site
                                        {
                                            OFFSET  -2.273050   0.000000   0.000000
                                        }
                                    }
                                }
                            }
                            JOINT RightFinger4
                            {
                                OFFSET  -7.435090   0.000000  -3.252850
                                CHANNELS 3 Zrotation Xrotation Yrotation
                                JOINT RightFinger41
                                {
                                    OFFSET  -3.717550   0.000000   0.000000
                                    CHANNELS 3 Zrotation Xrotation Yrotation
                                    JOINT RightFinger42
                                    {
                                        OFFSET  -1.858760   0.000000   0.000000
                                        CHANNELS 3 Zrotation Xrotation Yrotation
                                        End Site
                                        {
                                            OFFSET  -1.818440   0.000000   0.000000
                                        }
                                    }
                                }
                            }
                        }
                    }
                }
            }
        }
    }
    JOINT LeftHip
    {
        OFFSET   9.783030   0.000000   0.000000
        CHANNELS 3 Zrotation Xrotation Yrotation
        JOINT LeftKnee
        {
            OFFSET   0.000063 -41.789100   0.000608
            CHANNELS 3 Zrotation Xrotation Yrotation
            JOINT LeftAnkle
            {
                OFFSET   0.000048 -41.133200  -0.000184
                CHANNELS 3 Zrotation Xrotation Yrotation
                JOINT LeftToe
                {
                    OFFSET   0.000000  -6.358960  14.674500
                    CHANNELS 3 Zrotation Xrotation Yrotation
                    End Site
                    {
                        OFFSET   0.000000   0.000000   3.913200
                    }
                }
            }
        }
    }
    JOINT RightHip
    {
        OFFSET  -9.783030   0.000000   0.000000
        CHANNELS 3 Zrotation Xrotation Yrotation
        JOINT RightKnee
        {
            OFFSET   0.000071 -41.789100   0.001239
            CHANNELS 3 Zrotation Xrotation Yrotation
            JOINT RightAnkle
            {
                OFFSET   0.000037 -41.133200  -0.000166
                CHANNELS 3 Zrotation Xrotation Yrotation
                JOINT RightToe
                {
                    OFFSET   0.000000  -6.358960  14.674500
                    CHANNELS 3 Zrotation Xrotation Yrotation
                    End Site
                    {
                        OFFSET   0.000000   0.000000   3.913200
                    }
                }
            }
        }
    }
}
MOTION
Frames: 4
Frame Time:   0.016667
 -0.188471  90.044600  -2.893390  -1.514820  -8.298330  -4.744280   0.022522   4.849080  -0.694658   0.104855   9.697500  -1.398800   2.225850   4.050680  -0.157415   3.708050   8.176760   7.281770  -3.420810   1.138400   5.740850 -74.995900  -6.387170 -25.534100  24.396900 -17.743600 -78.621900 -41.664300  35.517800  48.906300  59.040400  54.333300 -108.293000  17.044000  -0.001933   0.000681  13.522000  -0.001079  -0.005634   0.957775  -0.228984 -13.448200  -0.002037   0.001718   0.008563  -0.001426   0.001676   0.002407  -0.786165  -0.094312   6.868230  -0.792698  -0.002701   0.007873  -0.527937  -0.001185   0.002448   2.151680   0.576592  14.989800  -0.000126   0.001181   0.011227   0.000000  -0.000932   0.007079 -10.943300  -7.155150  32.788900 -19.576000  -0.000445   0.005356 -13.037600   0.002695   0.002237   6.527200   2.443530   6.000660  67.871900  -3.611900  25.510100 -26.214000 -26.706600  67.005300  28.369700  32.172300 -47.375100 -59.040400  54.333300 108.293000 -16.696600  -0.004617  -0.001320 -13.348300  -0.002703   0.000175  -9.704120  -0.542616   3.167010  -0.000000  -0.002287  -0.003417  -0.000000  -0.006888  -0.002628  -9.481050   0.777944  -4.647330  -0.000000   0.010972   0.002247  -0.000000   0.009490   0.001657  -7.749530   2.069330 -14.854600  -0.000000   0.002301   0.001704  -0.000000   0.001672   0.001147  27.528600 -12.186700 -22.048500  44.867100  -0.000653  -0.004378  29.881400   0.001592  -0.003634   1.585330   7.531990   4.569330   0.007282   2.090840  18.485900  -5.138430  -3.046290   6.755490  -0.000000   0.000000  -0.000000   2.018330   5.419160  -6.489960  -1.992530   6.217130  -8.695940  -8.348260  -0.357927   4.572760   0.000000   0.000000   0.000000
 -0.176481  90.035700  -2.912060  -1.511860  -8.254110  -4.714310   0.026238   4.856450  -0.690659   0.111863   9.712190  -1.391090   2.214730   4.014330  -0.155242   3.690620   8.103800   7.354640  -3.400200   1.111850   5.758490 -74.876400  -6.462070 -25.409400  24.405900 -17.586300 -78.655500 -41.620700  35.487300  48.697000  59.040400  54.333300 -108.293000  17.039900  -0.001842   0.000632  13.519900  -0.001032  -0.005698   0.731297  -0.181831 -13.977100  -0.002094   0.001747   0.008588  -0.001469   0.001654   0.002522  -0.858425  -0.094481   6.387210  -0.864516  -0.002664   0.007950  -0.575779  -0.001234   0.002452   2.413660   0.647680  14.987100  -0.000063   0.001222   0.011363   0.000000  -0.000925   0.007188 -10.733400  -7.051590  32.928300 -19.228600   0.000077   0.005457 -12.806300   0.002629   0.002322   6.529840   2.431170   6.015430  67.841200  -3.749460  25.501100 -26.250800 -26.747300  66.979300  28.416800  32.178600 -47.332200 -59.040400  54.333300 108.293000 -16.714500  -0.004580  -0.001305 -13.357200  -0.002687   0.000238  -9.628570  -0.596961   3.520070  -0.000000  -0.002399  -0.003357  -0.000000  -0.006896  -0.002573  -9.441700   0.733840  -4.403700  -0.000000   0.011041   0.002249  -0.000000   0.009462   0.001645  -7.718460   2.061040 -14.854400  -0.000000   0.002325   0.001714  -0.000000   0.001678   0.001159  27.322900 -12.157300 -22.177400  44.571400  -0.000597  -0.004637  29.684400   0.001549  -0.003623   1.586060   7.490340   4.577480   0.017835   2.049650  18.454200  -5.142190  -3.014290   6.754900  -0.000000   0.000000   0.000000   2.012690   5.369460  -6.487020  -1.992420   6.198350  -8.716150  -8.345750  -0.343003   4.571090  -0.000000   0.000000   0.000000
 -0.165698  90.027200  -2.930450  -1.507620  -8.212670  -4.680320   0.028198   4.863450  -0.687196   0.115813   9.726170  -1.384330   2.209210   3.985570  -0.153628   3.682190   8.045990   7.419400  -3.378000   1.084490   5.765640 -74.729800  -6.536290 -25.299500  24.374100 -17.414300 -78.709500 -41.589800  35.406300  48.414300  59.040400  54.333300 -108.293000  17.035800  -0.001751   0.000581  13.517900  -0.000985  -0.005761   0.610206  -0.156617 -14.561100  -0.002150   0.001776   0.008618  -0.001511   0.001632   0.002638  -0.948862  -0.094654   5.839240  -0.954566  -0.002625   0.008021  -0.635759  -0.001282   0.002461   2.685450   0.721542  14.983700  -0.000000   0.001263   0.011498   0.000000  -0.000920   0.007301 -10.504200  -6.936290  33.080500 -18.848000   0.000848   0.005559 -12.552800   0.002559   0.002407   6.533700   2.409800   6.031300  67.761500  -3.831190  25.501800 -26.282300 -26.794500  66.942300  28.483400  32.197500 -47.270800 -59.040400  54.333300 108.293000 -16.727400  -0.004543  -0.001283 -13.363700  -0.002670   0.000294  -9.509980  -0.656024   3.912740  -0.000000  -0.002510  -0.003299  -0.000000  -0.006902  -0.002518  -9.402560   0.685714  -4.135610  -0.000000   0.011110   0.002252  -0.000000   0.009432   0.001634  -7.687380   2.052740 -14.854300  -0.000000   0.002349   0.001724  -0.000000   0.001684   0.001169  27.117300 -12.127500 -22.306300  44.275500  -0.000539  -0.004897  29.487400   0.001504  -0.003610   1.586690   7.447960   4.584020   0.028033   2.011530  18.423200  -5.146120  -2.981920   6.751970  -0.000000   0.000000   0.000000   2.007250   5.323230  -6.481440  -1.992250   6.179560  -8.740190  -8.342880  -0.328756   4.565840  -0.000000   0.000000  -0.000000
 -0.156780  90.019200  -2.948010  -1.503690  -8.174780  -4.645310   0.028611   4.871340  -0.682553   0.116727   9.741960  -1.375070   2.209110   3.964040  -0.152803   3.680540   8.002320   7.472100  -3.355640   1.050750   5.765500 -74.508200  -6.511750 -25.224500  24.321300 -17.347500 -78.683300 -41.606500  35.231800  48.011700  59.040400  54.333300 -108.293000  17.040900  -0.001675   0.000579  13.520400  -0.000937  -0.005824   0.619796  -0.160505 -15.108100  -0.002209   0.001800   0.008654  -0.001554   0.001610   0.002743  -1.063070  -0.094639   5.229840  -1.068430  -0.002583   0.008066  -0.711581  -0.001329   0.002477   3.034070   0.815705  14.978900  -0.000000   0.001307   0.011643   0.000000  -0.000918   0.007419 -10.229800  -6.799330  33.263700 -18.391100   0.001538   0.005664 -12.248500   0.002485   0.002491   6.543010   2.383330   6.049730  67.628300  -3.834460  25.539400 -26.364400 -26.885700  66.852700  28.588200  32.180600 -47.206200 -59.040400  54.333300 108.293000 -16.737500  -0.004509  -0.001273 -13.368800  -0.002652   0.000353  -9.426640  -0.705591   4.222040   0.000038  -0.002615  -0.003240  -0.000000  -0.006903  -0.002480  -9.410350   0.652964  -3.931940  -0.000000   0.011177   0.002253  -0.000000   0.009401   0.001623  -7.759460   2.071820 -14.854800  -0.000000   0.002373   0.001735  -0.000000   0.001694   0.001174  26.938400 -12.101500 -22.418700  44.017800  -0.000482  -0.005157  29.315800   0.001456  -0.003597   1.586380   7.408620   4.585310   0.038354   1.973210  18.402900  -5.150220  -2.948710   6.743410   0.000000   0.000000   0.000000   2.002650   5.289420  -6.472760  -1.992010   6.153950  -8.764410  -8.335350  -0.316080   4.555300  -0.000000   0.000000   0.000000
